<svg xmlns="http://www.w3.org/2000/svg" viewBox="0 0 500.24 269.49"><defs><style>.cls-1,.cls-5,.cls-6,.cls-8{fill:none;}.cls-1,.cls-7{stroke:#393f43;}.cls-1,.cls-3,.cls-4,.cls-5,.cls-6,.cls-7,.cls-8{stroke-miterlimit:10;stroke-width:2px;}.cls-2{fill:#ecf0f4;}.cls-10,.cls-3,.cls-7{fill:#fff;}.cls-3,.cls-4,.cls-5{stroke:#373c41;}.cls-4{fill:#d1dae2;}.cls-6{stroke:#d1dae2;}.cls-8{stroke:#cedae2;}.cls-9{fill:#ebf3f6;}</style></defs><title>Asset 4</title><g id="Layer_2" data-name="Layer 2"><g id="Layer_1-2" data-name="Layer 1"><line class="cls-1" x1="458.32" y1="186.78" x2="426.36" y2="157.78"/><rect class="cls-2" x="1" y="13.04" width="214.11" height="135.88"/><rect class="cls-3" x="1" y="1" width="214.11" height="135.88"/><path class="cls-1" d="M462.18,255.49A16.34,16.34,0,0,0,464,248c0-11.34-12-20.52-26.81-20.52s-26.81,9.19-26.81,20.52a16.34,16.34,0,0,0,1.87,7.52Z"/><rect class="cls-2" x="1" y="246.06" width="498.24" height="23.43"/><path class="cls-3" d="M349.62,89.72H151.55A4.35,4.35,0,0,0,147.13,94V214.51a4.35,4.35,0,0,0,4.41,4.25h82.77l-4.05,19.14h-12V246l64.63,0v-8.19l-12.83,0-3.21-19.15,82.77,1a4.35,4.35,0,0,0,4.41-4.25V94A4.35,4.35,0,0,0,349.62,89.72Z"/><path class="cls-4" d="M345.77,200.57l-190.37-1a4,4,0,0,1-4-4V97.87a4,4,0,0,1,4-4H345.77a4,4,0,0,1,4,4v98.69A4,4,0,0,1,345.77,200.57Z"/><line class="cls-5" x1="1" y1="246.06" x2="499.24" y2="246.06"/><line class="cls-6" x1="25.58" y1="53.6" x2="54.62" y2="24.56"/><circle class="cls-2" cx="446.06" cy="63.23" r="53.19"/><line class="cls-6" x1="18.03" y1="80.61" x2="83.57" y2="15.07"/><line class="cls-6" x1="65.38" y1="58.06" x2="86.53" y2="36.9"/><circle class="cls-7" cx="446.06" cy="54.19" r="53.19"/><line class="cls-8" x1="429.31" y1="234.55" x2="423.41" y2="236.63"/><line class="cls-1" x1="444.6" y1="228.44" x2="459.88" y2="191.99"/><circle class="cls-7" cx="459.8" cy="189.65" r="5.99"/><path class="cls-7" d="M423.18,172.79a20,20,0,1,0-29.25-24.05Z"/><rect class="cls-7" x="416.77" y="131.43" width="21.19" height="13.55" rx="4" ry="4" transform="translate(182.89 -238.59) rotate(39.1)"/><path class="cls-9" d="M459.48,11.05a45.28,45.28,0,0,1,26.7,22.05,45.7,45.7,0,0,1-18.71,61.82,45.8,45.8,0,0,1-62.15-19.34,45.53,45.53,0,0,1-4.92-17.24A45.63,45.63,0,0,1,425,14.07a45.28,45.28,0,0,1,34.5-3Zm0,0a45.13,45.13,0,0,0-34.36,3.27,44.68,44.68,0,0,0-23.35,43.9,45.13,45.13,0,0,0,5.07,16.57,44.56,44.56,0,0,0,59.84,18.62,44.7,44.7,0,0,0,19.25-60.18,45.13,45.13,0,0,0-26.44-22.19Z"/><rect class="cls-10" x="443.35" y="6.69" width="5.9" height="9.3"/><path class="cls-9" d="M427.46,72.78A26.8,26.8,0,0,1,446.06,27a27.05,27.05,0,0,1,10.43,2,26.79,26.79,0,0,1,14.75,14.75,26.79,26.79,0,0,1-43.77,29Zm0,0A26.41,26.41,0,0,0,436,78.44a25.79,25.79,0,1,0,10-49.69A25.77,25.77,0,0,0,421.8,64.23,26.41,26.41,0,0,0,427.46,72.78Z"/><line class="cls-1" x1="446.06" y1="63.03" x2="446.06" y2="8.24"/><rect class="cls-10" x="426.15" y="68.84" width="4.58" height="6.78" transform="translate(176.56 -281.8) rotate(45)"/><line class="cls-1" x1="450.84" y1="49.4" x2="427.03" y2="73.21"/></g></g></svg>