<svg xmlns="http://www.w3.org/2000/svg" viewBox="0 0 296.62 275.63"><defs><style>.cls-1{fill:#38bdad;}</style></defs><title>Asset 1</title><g id="Layer_2" data-name="Layer 2"><g id="Layer_1-2" data-name="Layer 1"><path class="cls-1" d="M190.75,113.56c0,23.52-10.12,45.37-14.7,63.49-7.63,30.21-13.11,50.07-27.76,50.07s-20.12-19.68-27.76-49.66c-4.64-18.2-14.7-40.2-14.7-63.9C105.83,50.84,124.84,0,148.29,0S190.75,50.84,190.75,113.56Z"/><path class="cls-1" d="M252.69,239.57c-14,11.92-34.15,16.9-48.17,23.33-23.37,10.72-39.06,17.48-49.42,8.66s-2.51-22.1,9.92-41.9c7.55-12,13.53-29.23,27.63-41.25,37.32-31.79,81-46.11,97.59-32S290,207.78,252.69,239.57Z"/><rect class="cls-1" x="142.5" y="215.04" width="11.58" height="60.59" rx="5.79" ry="5.79"/><path class="cls-1" d="M104,188.41c14,11.92,19.84,29.09,27.38,41,12.58,19.91,20.52,33.27,10.16,42.1s-25.94,2.14-49.18-8.45C78.23,256.67,58,251.58,43.93,239.57c-37.32-31.79-54.12-69-37.54-83.14S66.66,156.62,104,188.41Z"/></g></g></svg>